<svg width="38" height="38" viewBox="0 0 38 38" fill="none" xmlns="http://www.w3.org/2000/svg">
<rect width="37.2969" height="37.2969" rx="18.6484" fill="#0FC94D" fill-opacity="0.5"/>
<path d="M26.7885 8.28845H10.5081C9.25936 8.28845 8.28809 9.30598 8.28809 10.5085V26.7889C8.28809 28.0377 9.25936 29.009 10.5081 29.009H16.8445V21.9788H13.9307V18.6487H16.8445V16.1511C16.8445 13.2836 18.5558 11.6648 21.1459 11.6648C22.4409 11.6648 23.736 11.896 23.736 11.896V14.7174H22.3022C20.8684 14.7174 20.4059 15.5961 20.4059 16.5212V18.6487H23.5972L23.0884 21.9788H20.4059V29.009H26.7885C27.9911 29.009 29.0086 28.0377 29.0086 26.7889V10.5085C29.0086 9.30598 27.9911 8.28845 26.7885 8.28845Z" fill="#050605"/>
</svg>
