<svg width="200" height="233" viewBox="0 0 200 233" fill="none" xmlns="http://www.w3.org/2000/svg">
<path d="M164.681 67.34L180.76 51.2604M164.681 67.34C147.478 50.1374 124.151 40.4688 99.8229 40.4688C75.4948 40.4688 52.1632 50.133 34.9606 67.3356C17.758 84.5382 8.09375 107.87 8.09375 132.198C8.09375 156.526 17.758 179.858 34.9606 197.06C52.1632 214.263 75.4948 223.927 99.8229 223.927C124.151 223.927 147.483 214.263 164.685 197.06C181.888 179.858 191.552 156.526 191.552 132.198C191.552 107.87 181.883 84.5426 164.681 67.34Z" stroke="#14AE5C" stroke-width="16.1875" stroke-linecap="round" stroke-linejoin="round"/>
<path d="M99.8229 191.552C84.0812 191.552 68.9842 185.299 57.8532 174.168C46.7221 163.037 40.4688 147.94 40.4688 132.198C40.4688 116.456 46.7221 101.359 57.8532 90.2282C68.9842 79.0971 84.0812 72.8437 99.8229 72.8437M126.802 8.09375H72.8438M99.8229 132.198L137.594 94.4271" stroke="#14AE5C" stroke-width="16.1875" stroke-linecap="round" stroke-linejoin="round"/>
</svg>
