<svg width="38" height="38" viewBox="0 0 38 38" fill="none" xmlns="http://www.w3.org/2000/svg">
<rect width="37.2969" height="37.2969" rx="18.6484" fill="#0FC94D" fill-opacity="0.5"/>
<path d="M18.6715 13.3067C15.7114 13.3067 13.3526 15.7118 13.3526 18.6256C13.3526 21.5856 15.7114 23.9445 18.6715 23.9445C21.5853 23.9445 23.9903 21.5856 23.9903 18.6256C23.9903 15.7118 21.5853 13.3067 18.6715 13.3067ZM18.6715 22.0944C16.7752 22.0944 15.2026 20.5681 15.2026 18.6256C15.2026 16.7293 16.7289 15.203 18.6715 15.203C20.5678 15.203 22.094 16.7293 22.094 18.6256C22.094 20.5681 20.5678 22.0944 18.6715 22.0944ZM25.4241 13.1217C25.4241 12.4279 24.8691 11.8729 24.1753 11.8729C23.4816 11.8729 22.9266 12.4279 22.9266 13.1217C22.9266 13.8155 23.4816 14.3705 24.1753 14.3705C24.8691 14.3705 25.4241 13.8155 25.4241 13.1217ZM28.9392 14.3705C28.8467 12.7054 28.4767 11.2254 27.2742 10.0229C26.0716 8.82034 24.5916 8.45033 22.9266 8.35783C21.2153 8.26533 16.0814 8.26533 14.3701 8.35783C12.7051 8.45033 11.2713 8.82034 10.0225 10.0229C8.81997 11.2254 8.44996 12.7054 8.35746 14.3705C8.26496 16.0818 8.26496 21.2156 8.35746 22.9269C8.44996 24.592 8.81997 26.0258 10.0225 27.2745C11.2713 28.4771 12.7051 28.8471 14.3701 28.9396C16.0814 29.0321 21.2153 29.0321 22.9266 28.9396C24.5916 28.8471 26.0716 28.4771 27.2742 27.2745C28.4767 26.0258 28.8467 24.592 28.9392 22.9269C29.0317 21.2156 29.0317 16.0818 28.9392 14.3705ZM26.7192 24.7307C26.3954 25.6557 25.6554 26.3495 24.7766 26.7195C23.3891 27.2745 20.1515 27.1358 18.6715 27.1358C17.1452 27.1358 13.9076 27.2745 12.5663 26.7195C11.6413 26.3495 10.9475 25.6557 10.5775 24.7307C10.0225 23.3894 10.1613 20.1519 10.1613 18.6256C10.1613 17.1455 10.0225 13.908 10.5775 12.5204C10.9475 11.6417 11.6413 10.9479 12.5663 10.5779C13.9076 10.0229 17.1452 10.1616 18.6715 10.1616C20.1515 10.1616 23.3891 10.0229 24.7766 10.5779C25.6554 10.9016 26.3491 11.6417 26.7192 12.5204C27.2742 13.908 27.1354 17.1455 27.1354 18.6256C27.1354 20.1519 27.2742 23.3894 26.7192 24.7307Z" fill="#050605"/>
</svg>
