<svg width="38" height="38" viewBox="0 0 38 38" fill="none" xmlns="http://www.w3.org/2000/svg">
<rect width="37.2969" height="37.2969" rx="18.6484" fill="#0FC94D" fill-opacity="0.5"/>
<path d="M12.9245 29.009V15.1489H8.61354V29.009H12.9245ZM10.7459 13.2947C12.1365 13.2947 13.249 12.1359 13.249 10.7452C13.249 9.40096 12.1365 8.28845 10.7459 8.28845C9.40157 8.28845 8.28906 9.40096 8.28906 10.7452C8.28906 12.1359 9.40157 13.2947 10.7459 13.2947ZM29.0559 29.009V21.4068C29.0559 17.6984 28.2215 14.8244 23.8642 14.8244C21.7782 14.8244 20.3876 15.9833 19.785 17.0495H19.7386V15.1489H15.6131V29.009H19.9241V22.1485C19.9241 20.3406 20.2485 18.6255 22.4736 18.6255C24.6986 18.6255 24.7449 20.6651 24.7449 22.2875V29.009H29.0559Z" fill="#050605"/>
</svg>
